<mxfile host="app.diagrams.net" modified="2024-03-30T08:32:00.678Z" agent="Mozilla/5.0 (X11; Linux x86_64) AppleWebKit/537.36 (KHTML, like Gecko) Chrome/120.0.0.0 Safari/537.36" version="24.2.0" etag="Iync0BIC6fh-0XddnJnn" type="github">
  <diagram name="Page-1" id="MyoNyQ0nnHwNe6dcFmiM">
    <mxGraphModel>
      <root>
        <mxCell id="0" />
        <mxCell id="1" parent="0" />
      </root>
    </mxGraphModel>
  </diagram>
</mxfile>
